<svg xmlns="http://www.w3.org/2000/svg" width="96.496" height="96.496" viewBox="0 0 96.496 96.496">
  <g id="b_border" fill="none">
    <path d="M48.248,0A48.248,48.248,0,1,1,0,48.248,48.248,48.248,0,0,1,48.248,0Z" stroke="none"/>
    <path d="M 48.247802734375 2 C 42.00350189208984 2 35.94705963134766 3.222503662109375 30.24668884277344 5.633560180664063 C 24.73976135253906 7.962791442871094 19.79363250732422 11.29769897460938 15.54567718505859 15.54567718505859 C 11.29769897460938 19.79363250732422 7.962791442871094 24.73976135253906 5.633560180664063 30.24668884277344 C 3.222503662109375 35.94705963134766 2 42.00350189208984 2 48.247802734375 C 2 54.49208831787109 3.222503662109375 60.54854583740234 5.633560180664063 66.24891662597656 C 7.962791442871094 71.75582885742188 11.29769897460938 76.70197296142578 15.54567718505859 80.94992828369141 C 19.79363250732422 85.19790649414063 24.73977661132813 88.53281402587891 30.24668884277344 90.86204528808594 C 35.94705963134766 93.27310180664063 42.00350189208984 94.49560546875 48.247802734375 94.49560546875 C 54.49208831787109 94.49560546875 60.54854583740234 93.27310180664063 66.24891662597656 90.86204528808594 C 71.75582885742188 88.53281402587891 76.70197296142578 85.19790649414063 80.94992828369141 80.94992828369141 C 85.19790649414063 76.70197296142578 88.53281402587891 71.75582885742188 90.86204528808594 66.24891662597656 C 93.27310180664063 60.54854583740234 94.49560546875 54.49208831787109 94.49560546875 48.247802734375 C 94.49560546875 42.00350189208984 93.27310180664063 35.94705963134766 90.86204528808594 30.24668884277344 C 88.53281402587891 24.73977661132813 85.19790649414063 19.79363250732422 80.94992828369141 15.54567718505859 C 76.70197296142578 11.29769897460938 71.75582885742188 7.962791442871094 66.24891662597656 5.633560180664063 C 60.54854583740234 3.222503662109375 54.49208831787109 2 48.247802734375 2 M 48.247802734375 0 C 74.89431762695313 0 96.49560546875 21.60127258300781 96.49560546875 48.247802734375 C 96.49560546875 74.89431762695313 74.89431762695313 96.49560546875 48.247802734375 96.49560546875 C 21.60127258300781 96.49560546875 0 74.89431762695313 0 48.247802734375 C 0 21.60127258300781 21.60127258300781 0 48.247802734375 0 Z" stroke="none" fill="#00c7c7"/>
  </g>
</svg>
