<svg xmlns="http://www.w3.org/2000/svg" width="208" height="208" viewBox="0 0 208 208">
  <g id="pic_profile_main" transform="translate(-1394 2762)">
    <g id="Ellipse_167" data-name="Ellipse 167" transform="translate(1394 -2762)" fill="none" stroke="#2c393f" stroke-linecap="round" stroke-width="5" stroke-dasharray="5 10">
      <circle cx="104" cy="104" r="104" stroke="none"/>
      <circle cx="104" cy="104" r="101.5" fill="none"/>
    </g>
    <g id="Path_2576" data-name="Path 2576" transform="matrix(0.999, 0.035, -0.035, 0.999, 1404.44, -2758.947)" fill="none">
      <path d="M97,0A97,97,0,1,1,0,97,96.85,96.85,0,0,1,97,0Z" stroke="none"/>
      <path d="M 97 5 C 90.75464630126953 5 84.51470947265625 5.628875732421875 78.45349884033203 6.869171142578125 C 72.54888153076172 8.077438354492188 66.74094390869141 9.880325317382813 61.19096374511719 12.22776794433594 C 55.74067687988281 14.53306579589844 50.48347473144531 17.38661193847656 45.56541442871094 20.70921325683594 C 40.69279479980469 24.00108337402344 36.11061096191406 27.78173828125 31.94618225097656 31.94618225097656 C 27.78173828125 36.11061096191406 24.00108337402344 40.69279479980469 20.70921325683594 45.56541442871094 C 17.38661193847656 50.48347473144531 14.53306579589844 55.74067687988281 12.22776794433594 61.19096374511719 C 9.880325317382813 66.74094390869141 8.077438354492188 72.54888153076172 6.869171142578125 78.45349884033203 C 5.628875732421875 84.51470947265625 5 90.75464630126953 5 97 C 5 103.2453536987305 5.628875732421875 109.4852905273438 6.869171142578125 115.546501159668 C 8.077438354492188 121.4511184692383 9.880325317382813 127.2590560913086 12.22776794433594 132.8090209960938 C 14.53306579589844 138.2593231201172 17.38661193847656 143.5165252685547 20.70921325683594 148.4345855712891 C 24.00108337402344 153.3072052001953 27.78173828125 157.8893737792969 31.94618225097656 162.0538177490234 C 36.11061096191406 166.21826171875 40.69279479980469 169.9989166259766 45.56541442871094 173.2908020019531 C 50.48347473144531 176.6133880615234 55.74067687988281 179.4669342041016 61.19096374511719 181.7722320556641 C 66.74094390869141 184.1196746826172 72.54888153076172 185.9225616455078 78.45349884033203 187.1308288574219 C 84.51470947265625 188.3711242675781 90.75464630126953 189 97 189 C 103.2453536987305 189 109.4852905273438 188.3711242675781 115.546501159668 187.1308288574219 C 121.4511184692383 185.9225616455078 127.2590560913086 184.1196746826172 132.8090209960938 181.7722320556641 C 138.2593231201172 179.4669342041016 143.5165252685547 176.6133880615234 148.4345855712891 173.2908020019531 C 153.3072052001953 169.9989166259766 157.8893737792969 166.21826171875 162.0538177490234 162.0538177490234 C 166.21826171875 157.8893737792969 169.9989166259766 153.3072052001953 173.2908020019531 148.4345855712891 C 176.6133880615234 143.5165252685547 179.4669342041016 138.2593231201172 181.7722320556641 132.8090209960938 C 184.1196746826172 127.2590560913086 185.9225616455078 121.4511184692383 187.1308288574219 115.546501159668 C 188.3711242675781 109.4852905273438 189 103.2453536987305 189 97 C 189 90.86911773681641 188.3939666748047 84.73834991455078 187.19873046875 78.77806091308594 C 186.0353851318359 72.97667694091797 184.3000946044922 67.26573181152344 182.0411224365234 61.80387878417969 C 179.8250274658203 56.44573974609375 177.0832061767578 51.27365112304688 173.8917999267578 46.43122863769531 C 170.7335815429688 41.63923645019531 167.1088562011719 37.12979125976563 163.1181793212891 33.02812194824219 C 158.8950500488281 28.68730163574219 154.2433776855469 24.74819946289063 149.2924194335938 21.32032775878906 C 144.3010864257813 17.864501953125 138.9605560302734 14.89735412597656 133.4191436767578 12.50129699707031 C 127.7822341918945 10.06393432617188 121.878059387207 8.1922607421875 115.8705596923828 6.938323974609375 C 109.7087326049805 5.652145385742188 103.3597640991211 5 97 5 M 97 0 C 124.2677917480469 0 148.90771484375 11.25135803222656 166.7019653320313 29.54150390625 C 183.5300903320313 46.83773803710938 194 70.69617462158203 194 97 C 194 150.5716247558594 150.5716247558594 194 97 194 C 43.42837524414063 194 0 150.5716247558594 0 97 C 0 43.42837524414063 43.42837524414063 0 97 0 Z" stroke="none" fill="#00c7c7"/>
    </g>
  </g>
</svg>
